<?xml version="1.0" encoding="utf-8"?>
<!DOCTYPE svg PUBLIC "-//W3C//DTD SVG 20010904//EN" "http://www.w3.org/TR/2001/REC-SVG-20010904/DTD/svg10.dtd">
<svg version="1.0" xmlns="http://www.w3.org/2000/svg" width="250px" height="241px" viewBox="0 0 250 241" preserveAspectRatio="xMidYMid meet">
 <g fill="#90B482">
  <path d="M75.9 163.3 c-40.1 -40.3 -43.9 -44.4 -47.2 -51 -4.7 -9.6 -6.1 -16.6 -5.4 -28.3 0.5 -10.5 2.7 -17.7 7.8 -25.3 19.2 -29 59 -33.1 83.2 -8.5 l6.7 6.8 6 -6.4 c20.4 -21.7 54.9 -22.1 76 -0.7 13.6 13.8 18.7 31.3 14.5 49.9 -3.2 14.1 -5.1 16.4 -52.5 63.7 -23.8 23.9 -43.9 43.5 -44.5 43.5 -0.6 0 -20.7 -19.7 -44.6 -43.7z m88.2 -6 c39.3 -39.5 42.8 -43.3 45.4 -49.3 12.8 -29.2 -4.5 -62.4 -35.5 -68 -19 -3.5 -40.1 5.8 -49.5 21.8 -1.1 1.7 -2.7 3.2 -3.6 3.2 -0.9 0 -3.1 -2.3 -4.9 -5 -6.3 -9.8 -19.5 -18.1 -32.4 -20.2 -24 -4 -49.1 12.8 -54.5 36.3 -2.6 11.2 -0.7 25.5 4.6 34.9 1.5 2.7 19.5 21.5 44.7 46.8 23.1 23.2 42.3 42.2 42.6 42.2 0.3 0 19.7 -19.2 43.1 -42.7z"/>
 </g>
</svg>