<?xml version="1.0" standalone="no"?>
<!DOCTYPE svg PUBLIC "-//W3C//DTD SVG 20010904//EN"
 "http://www.w3.org/TR/2001/REC-SVG-20010904/DTD/svg10.dtd">
<svg version="1.0" xmlns="http://www.w3.org/2000/svg"
 width="136.229201pt" height="229.946779pt" viewBox="0 0 136.229201 229.946779"
 preserveAspectRatio="xMidYMid meet">
<metadata>
Created by potrace 1.12, written by Peter Selinger 2001-2015
</metadata>
<g transform="translate(-73.679702,267.946693) scale(0.100000,-0.100000)"
fill="#90B482" stroke="none">
<path d="M1359 2662 c-15 -9 -51 -37 -80 -61 l-54 -44 -88 7 c-97 6 -147 -6
-166 -42 -6 -12 -18 -52 -26 -91 -19 -91 -26 -102 -100 -145 -117 -68 -132
-109 -80 -225 35 -78 35 -104 0 -182 -35 -78 -36 -131 -5 -164 13 -14 54 -43
91 -65 71 -42 79 -55 95 -145 8 -47 31 -97 50 -108 8 -4 14 -16 14 -25 0 -10
-47 -193 -105 -407 -120 -444 -125 -465 -102 -465 9 0 73 29 142 65 69 36 129
65 134 65 5 0 45 -57 90 -126 58 -88 87 -124 98 -122 19 3 25 23 99 300 26 98
50 178 53 178 3 0 26 -75 50 -168 83 -315 82 -312 101 -312 12 0 45 42 99 125
44 69 83 125 86 125 3 0 66 -30 140 -67 99 -50 138 -64 146 -56 11 11 5 38
-148 602 -64 239 -72 276 -59 283 23 13 43 56 61 133 19 82 28 94 111 140 35
20 70 45 79 58 23 33 18 81 -15 157 -16 38 -30 78 -30 90 0 12 14 52 30 90 33
76 38 124 15 158 -9 12 -47 40 -86 63 -77 45 -91 65 -110 162 -7 39 -20 69
-39 90 l-29 32 -109 -3 -110 -2 -54 48 c-29 27 -63 54 -75 60 -32 17 -84 14
-114 -6z m153 -78 c34 -30 73 -57 86 -61 14 -3 62 -3 107 1 106 8 128 -6 145
-92 19 -100 37 -129 104 -169 119 -71 124 -83 76 -193 -16 -38 -30 -82 -30
-98 0 -17 14 -62 30 -100 17 -39 30 -82 30 -96 0 -28 -33 -58 -109 -98 -57
-31 -85 -74 -96 -150 -13 -83 -43 -115 -105 -110 -70 6 -151 2 -171 -8 -13 -7
-43 -30 -67 -52 -82 -75 -108 -74 -191 2 -30 27 -68 54 -85 58 -17 5 -72 7
-123 4 l-91 -4 -15 28 c-8 16 -20 56 -27 89 -17 84 -34 107 -108 152 -36 21
-74 51 -85 65 -19 25 -19 26 8 89 51 122 52 133 11 233 -35 84 -36 89 -21 113
9 13 37 37 63 53 26 15 61 40 78 54 30 25 35 35 64 154 19 74 35 82 143 75
107 -7 124 -1 203 70 77 69 85 69 176 -9z m-213 -1259 c65 -58 92 -70 141 -63
18 3 30 0 30 -6 -1 -28 -208 -780 -216 -783 -5 -1 -40 45 -78 103 -38 57 -73
107 -77 110 -4 2 -60 -23 -125 -56 -65 -33 -120 -58 -122 -55 -3 2 42 181 100
397 118 445 97 405 219 407 l66 1 62 -55z m475 44 c8 -8 213 -784 209 -792 -3
-4 -55 20 -117 53 -63 33 -118 60 -123 60 -6 0 -43 -50 -83 -110 -40 -61 -76
-107 -80 -103 -4 4 -37 117 -73 251 l-65 243 45 172 c41 156 49 175 80 206
l35 33 84 -4 c46 -2 86 -6 88 -9z"/>
<path d="M1307 2454 c-97 -23 -167 -63 -238 -133 -96 -96 -149 -218 -149 -343
0 -252 182 -462 433 -499 147 -22 303 32 416 143 110 109 165 270 142 418 -43
288 -326 482 -604 414z m218 -39 c182 -48 315 -194 345 -378 47 -296 -221
-564 -517 -517 -200 32 -352 184 -385 386 -52 311 251 588 557 509z"/>
</g>
</svg>
