<?xml version="1.0" encoding="UTF-8" standalone="no"?><!-- Generator: Gravit.io --><svg xmlns="http://www.w3.org/2000/svg" xmlns:xlink="http://www.w3.org/1999/xlink" style="isolation:isolate" viewBox="92.215 26.153 1074.384 444.343" width="1074.384pt" height="444.343pt"><defs><clipPath id="_clipPath_OLpDBELvPxellpchfh0ALv0Chw5uWF1M"><rect x="92.215" y="26.153" width="1074.384" height="444.343"/></clipPath></defs><g clip-path="url(#_clipPath_OLpDBELvPxellpchfh0ALv0Chw5uWF1M)"><g><path d=" M 245.5 470.3 C 204.8 467.7 170.6 453.1 141.2 425.5 C 128.6 413.7 111 388 104.8 372.5 C 94.8 347.1 91.1 325.9 92.5 301.5 C 94.7 261.1 117.3 209.6 160.6 145.8 C 180.6 116.5 183.4 112.6 196.8 95 C 208.7 79.4 207.4 81 228.9 54.1 C 250.2 27.4 251.6 25.8 253.3 26.2 C 254.7 26.5 272.4 47.8 292.9 74 C 352.1 149.6 387.9 208.6 404 257 C 415.5 291.8 416.8 317.2 408.5 350.2 C 399.4 386.5 374.1 422.5 343.5 442.8 C 334.4 448.8 316.2 458 306.9 461.3 C 288.4 467.8 263.8 471.4 245.5 470.3 L 245.5 470.3 Z  M 227 460.7 C 227 460 225.7 458.7 224.1 457.7 C 218 454.1 205.2 443 198.4 435.4 C 180.2 415.1 167.5 388.7 161.6 358.9 C 158.3 342.4 150 326.4 132.5 302.5 C 121 286.8 105.7 273.1 103.3 276.3 C 101 279.2 99.8 287.6 99.3 305 C 98.4 335.8 102 352.7 114.9 378.9 C 125.6 400.5 145.3 423.6 163.1 435.4 C 183.6 449 193.1 453.6 210.9 458.1 C 217.2 459.7 222.6 461.3 222.9 461.5 C 223.9 462.5 227 461.9 227 460.7 L 227 460.7 Z  M 290.7 459.5 C 317.6 452.5 342.7 438.4 360.5 420.5 C 378.6 402.2 390.6 383.2 398.8 359.7 C 404.5 343.6 407.1 328.1 407.1 310.5 C 407.1 296.6 404.4 277 402.3 274.9 C 401.1 273.7 395.4 277.8 388 285.1 C 378.7 294.1 373 301.4 363.8 315.5 C 350.2 336.5 346.7 343.9 345.5 353.7 C 344.7 361.1 339.6 380.6 336.4 388.7 C 331.8 400.4 323.1 416.3 316.5 425.1 C 309.1 435 293.8 450 285.8 455.3 C 282.6 457.4 280 459.8 280 460.6 C 280 462.4 279.8 462.4 290.7 459.5 L 290.7 459.5 Z  M 156 315.2 C 156 306.7 158.7 283.8 161 273.5 C 161.6 270.8 163.4 263.8 165.2 258.1 L 168.3 247.7 L 165.4 236.6 C 162.8 226.5 162.5 224 162.5 208.5 C 162.5 185.6 165.7 169.9 175.6 144.2 C 178 137.9 180 132.1 180 131.2 C 179.8 126.7 161.9 152.9 140.3 189 C 128.7 208.4 115 237.2 109.1 254.6 C 105.1 266.2 105.1 268.4 108.9 270 C 117.1 273.4 145.8 307.5 152.1 321.3 C 152.8 322.8 153.9 324 154.7 324 C 155.7 324 156 321.9 156 315.2 L 156 315.2 Z  M 358.4 312.8 C 371.1 293.2 386.6 275.6 395.5 270.7 C 397.7 269.4 399.6 267.6 399.8 266.6 C 401.2 259.8 380.6 213.8 364.6 187.5 C 359.9 179.8 355.7 172.8 355.3 172 C 354.6 170.5 350.1 163.3 348.7 161.5 C 348.3 161 345.1 156.2 341.7 151 C 330.4 133.9 327.2 129.5 325.1 128.3 L 323 127 L 325.1 132.3 C 338.2 165.6 341.9 180 342.7 202 C 343.3 218.7 342.4 227.6 338.8 239.8 L 336.7 247 L 339.3 255.8 C 340.7 260.6 342.6 267 343.4 270.1 C 346 279.6 349 300 349.4 312 C 349.7 318.3 349.9 323.6 349.9 323.8 C 350.2 324.9 352 322.5 358.4 312.8 L 358.4 312.8 Z  M 279 293 C 297.2 286.8 312 276.1 321.7 262 C 328.4 252.2 330.3 246.4 328.1 242.2 C 327.6 241.3 325.7 236.9 323.9 232.5 C 317.4 216.7 303.6 190.3 296 179 C 295 177.6 292.6 173.8 290.5 170.5 C 287.1 165.2 276.9 150.8 270 141.6 C 259.1 127.1 254.7 122 253.1 122 C 251.4 122 249.2 124.3 240.4 135 C 230.3 147.4 210.6 176.2 200.8 193 C 190 211.4 176 241.8 176 246.9 C 176 247.9 177.4 251.4 179.1 254.6 C 188.2 272 207.9 287.9 227.3 293.5 C 240.3 297.2 267.3 297 279 293 Z  M 179.5 221.5 C 192 192.8 212.7 160 239.3 126.7 C 246.2 118.1 247.8 115.5 247 114.2 C 244.7 110.1 218.1 82 216.5 82 C 215.8 82 213.3 85 211 88.7 C 208.6 92.5 205.7 97.1 204.5 99 C 195.1 113.8 183.2 139.2 177.7 156.5 C 170.7 178.3 169.5 186.1 169.5 209.5 C 169.5 225.2 169.9 231.1 170.9 232.9 C 172.7 236.1 173.7 234.9 179.5 221.5 Z  M 335.4 227 C 337 210.7 337.1 206.6 335.6 194 C 332.9 171.4 328.1 155.1 316.7 129.5 C 309.6 113.6 292.8 84.5 289.8 82.9 C 288.2 82 287 82.7 282.6 87.2 C 269.4 100.7 258 113.5 258 114.9 C 258 115.8 261.9 121.5 266.8 127.5 C 292.8 160.1 314.6 195.5 328.8 227.9 C 331.6 234.3 332.2 235.2 333.4 233.9 C 334.2 233.1 335.1 230 335.4 227 L 335.4 227 Z  M 259.8 102.8 C 262.6 99.3 269.4 91.8 275 86 C 280.5 80.3 285 75.3 285 75 C 285 74.6 282.6 71.5 279.7 67.9 C 276.8 64.4 271.3 57.5 267.6 52.5 C 263.8 47.6 260.2 43.1 259.6 42.5 C 259 42 257.7 40.3 256.7 38.8 C 254.4 35.1 251.6 35.3 248.9 39.3 C 247.6 41 246.3 42.7 246 43 C 245.5 43.5 235.9 55.4 225.3 68.7 C 222.9 71.6 221 74.5 221 75.2 C 221 75.9 224.3 79.9 228.3 84.1 C 232.2 88.3 239 95.6 243.3 100.4 C 247.6 105.1 252 109 252.9 109 C 253.9 109 257 106.2 259.8 102.8 L 259.8 102.8 Z " fill="rgb(1,46,103)"/></g><g style="isolation:isolate"/><g><path d=" M 455.113 352.694 C 453.713 352.394 452.213 351.794 451.713 351.294 C 451.113 350.794 449.913 350.394 448.913 350.394 C 446.713 350.394 437.613 344.594 433.813 340.894 C 429.813 336.794 425.213 326.594 423.613 317.994 C 421.913 309.094 421.413 293.694 422.813 292.294 C 423.413 291.694 426.013 291.394 428.713 291.594 L 433.613 291.894 L 433.713 299.194 C 433.813 303.194 434.113 306.794 434.513 307.094 C 434.813 307.494 435.113 309.294 435.113 311.294 C 435.113 313.294 436.213 318.094 437.613 321.894 C 439.513 327.494 441.013 329.794 445.113 333.694 C 448.213 336.494 451.213 338.394 452.513 338.394 C 453.813 338.394 455.513 339.094 456.213 339.994 C 457.313 341.294 459.113 341.494 466.613 341.194 C 474.313 340.794 476.213 340.394 479.613 338.094 C 487.513 332.894 490.013 330.894 490.113 329.994 C 490.113 329.394 490.913 328.094 492.013 326.994 C 493.013 325.794 494.613 321.894 495.513 318.294 C 497.313 310.994 497.713 296.894 496.113 295.894 C 495.513 295.494 495.313 294.294 495.613 293.294 C 496.313 291.094 492.313 281.994 488.413 276.794 C 483.813 270.694 469.513 257.394 467.513 257.394 C 467.113 257.394 466.313 256.794 465.713 256.094 C 465.113 255.294 460.213 251.494 454.913 247.494 C 436.113 233.394 429.113 224.394 424.613 208.894 C 422.013 200.094 422.813 180.394 426.113 170.894 C 427.513 167.094 429.213 163.294 429.913 162.494 C 430.713 161.694 431.713 160.094 432.113 158.794 C 434.613 152.294 453.413 143.394 464.913 143.394 C 472.313 143.394 485.113 146.094 488.313 148.494 C 489.813 149.494 491.413 150.394 491.913 150.394 C 493.013 150.394 500.013 157.594 501.713 160.594 C 507.613 170.794 508.713 174.894 509.713 188.694 C 510.413 197.994 509.613 199.394 503.513 199.394 C 498.013 199.394 497.513 198.394 496.913 186.894 C 496.313 176.094 493.813 170.094 487.113 163.294 C 479.613 155.594 470.113 153.894 454.813 157.594 C 444.513 160.094 438.213 169.594 436.613 184.894 C 436.313 188.194 435.813 192.094 435.513 193.594 C 435.213 194.994 435.513 196.494 436.113 196.894 C 436.613 197.194 437.113 198.694 437.013 200.194 C 436.613 212.894 447.613 227.094 470.513 243.294 C 487.213 255.094 499.313 266.994 504.213 276.694 C 504.513 277.394 505.313 278.894 506.013 280.194 C 510.713 289.194 511.913 306.894 508.713 319.394 C 504.313 336.194 493.313 348.094 478.513 351.994 C 473.413 353.294 460.713 353.694 455.113 352.694 L 455.113 352.694 Z " fill="rgb(1,46,103)"/><path d=" M 555.913 352.694 C 554.313 352.494 553.113 351.894 553.113 351.394 C 553.113 350.994 551.513 350.294 549.613 349.994 C 547.713 349.594 546.113 348.894 546.113 348.394 C 546.113 347.794 545.513 347.394 544.713 347.394 C 542.813 347.394 534.113 337.394 534.113 335.194 C 534.113 334.294 533.713 333.294 533.213 332.994 C 532.413 332.494 531.713 328.994 530.413 320.394 C 530.113 318.394 530.013 278.894 530.113 198.894 L 530.113 189.794 L 534.013 189.694 C 536.213 189.594 538.413 190.094 539.013 190.794 C 539.713 191.594 540.113 212.994 540.113 257.094 C 540.213 292.894 540.513 322.394 540.813 322.794 C 541.213 323.194 541.713 324.694 541.913 326.194 C 542.713 332.494 547.713 338.894 554.513 342.394 C 557.913 344.094 568.713 344.194 570.413 342.494 C 571.013 341.894 572.213 341.394 573.113 341.394 C 576.013 341.294 582.913 333.994 585.313 328.394 L 587.613 322.894 L 587.813 257.894 C 587.913 222.194 588.113 192.194 588.113 191.294 C 588.113 190.194 589.113 189.794 592.313 189.894 C 595.713 189.994 596.613 190.394 597.313 192.394 C 597.813 193.794 598.013 195.794 597.713 196.894 C 597.413 198.094 597.113 226.994 597.113 261.094 C 597.013 325.494 597.013 325.094 592.513 334.994 C 589.913 340.894 581.113 349.194 575.413 351.194 C 571.313 352.594 560.113 353.494 555.913 352.694 L 555.913 352.694 Z " fill="rgb(1,46,103)"/><path d=" M 617.313 351.194 C 616.413 350.294 616.113 330.794 616.113 269.794 L 616.113 189.494 L 618.213 188.894 C 619.413 188.494 620.613 188.694 621.013 189.194 C 621.313 189.794 623.413 190.394 625.513 190.594 C 628.913 190.894 629.613 191.294 630.413 193.894 C 630.913 195.594 631.913 198.394 632.813 200.194 C 635.113 205.494 642.113 224.594 642.113 225.794 C 642.113 226.394 642.713 228.094 643.513 229.494 C 644.213 230.894 645.113 233.394 645.513 234.994 C 646.113 237.594 650.113 249.094 652.113 253.894 C 653.413 257.094 658.813 272.294 661.513 280.394 C 662.913 284.494 665.113 290.794 666.513 294.394 C 667.813 297.994 670.413 305.494 672.313 311.094 C 676.113 322.894 678.113 324.394 678.113 315.694 C 678.113 312.494 678.213 282.894 678.413 249.894 L 678.613 189.894 L 681.913 189.994 C 688.613 190.394 688.113 183.394 688.113 269.894 C 688.113 322.194 687.813 349.194 687.113 350.494 C 685.713 352.994 679.113 353.094 676.813 350.694 C 675.313 348.894 671.913 340.094 665.813 321.894 C 664.213 316.994 662.513 311.994 662.013 310.894 C 661.613 309.794 659.813 304.894 658.013 299.894 C 656.313 294.994 654.513 289.994 654.113 288.894 C 653.613 287.794 653.013 285.994 652.813 284.894 C 652.513 283.794 651.113 279.794 649.713 275.894 C 648.213 272.094 645.513 264.194 643.613 258.394 C 641.613 252.594 639.613 246.994 639.113 245.894 C 638.613 244.794 636.813 239.594 635.113 234.394 C 633.413 229.194 631.613 223.994 631.113 222.894 C 630.713 221.794 629.813 219.394 629.113 217.694 C 628.413 215.894 627.513 214.394 627.013 214.394 C 626.013 214.394 625.913 226.594 625.713 300.994 C 625.613 352.394 625.613 352.394 620.713 352.394 C 619.513 352.394 618.013 351.894 617.313 351.194 L 617.313 351.194 Z " fill="rgb(1,46,103)"/><path d=" M 730.313 350.994 C 729.813 350.394 728.913 346.494 728.313 342.394 C 726.213 327.994 724.113 315.094 723.713 314.494 C 723.513 314.194 723.013 311.294 722.713 308.094 C 722.313 304.894 721.713 300.194 721.213 297.594 C 720.713 294.994 719.813 289.494 719.113 285.394 C 718.513 281.294 717.313 274.094 716.513 269.394 C 715.713 264.694 714.413 256.394 713.613 250.894 C 712.813 245.394 711.913 239.794 711.613 238.394 C 711.313 236.994 710.613 232.794 710.113 228.894 C 709.513 225.094 708.413 217.894 707.513 212.894 C 705.613 201.394 705.513 200.794 703.613 188.894 C 702.713 183.394 701.813 177.794 701.613 176.394 C 699.913 167.094 697.013 146.094 697.413 145.694 C 698.413 144.794 705.513 144.594 707.613 145.394 C 709.413 146.094 710.013 147.494 710.913 153.094 C 711.513 156.794 713.013 165.494 714.213 172.394 C 715.413 179.294 716.613 186.494 716.813 188.394 C 717.013 190.294 717.813 195.694 718.613 200.394 C 719.413 205.094 720.513 211.694 721.113 215.094 C 722.513 223.694 725.813 243.594 727.113 251.394 C 727.713 254.994 728.713 260.794 729.213 264.394 C 729.713 267.994 730.313 271.794 730.613 272.894 C 730.813 273.994 731.513 277.594 732.013 280.894 C 732.513 284.194 733.213 287.594 733.513 288.394 C 733.813 289.194 734.213 292.194 734.513 294.894 C 734.813 297.694 735.913 305.194 737.113 311.694 C 738.213 318.294 739.113 324.694 739.113 325.994 C 739.113 327.494 739.713 328.394 740.613 328.394 C 741.413 328.394 742.113 328.094 742.113 327.694 C 742.113 326.894 745.213 306.694 748.813 284.894 C 750.213 276.094 751.513 267.794 751.613 266.394 C 751.913 263.294 755.013 244.794 755.713 241.394 C 756.013 239.994 756.713 235.994 757.213 232.394 C 757.713 228.794 758.513 223.894 759.013 221.394 C 759.813 217.794 763.513 194.394 765.713 178.894 C 765.913 177.294 766.613 173.694 767.113 170.894 C 767.613 168.194 768.613 162.094 769.213 157.494 C 770.613 147.194 772.113 145.394 778.913 145.394 C 784.613 145.394 785.813 146.894 786.713 155.094 C 787.013 158.294 787.613 161.794 788.113 162.894 C 788.813 164.594 791.313 182.294 791.613 187.894 C 791.713 188.994 792.013 190.594 792.313 191.394 C 792.613 192.194 793.413 196.994 794.113 201.894 C 794.713 206.894 795.413 211.794 795.613 212.894 C 796.113 215.894 797.613 225.794 801.013 248.394 C 802.713 259.694 804.613 270.994 805.213 273.694 C 805.813 276.294 806.513 280.194 806.713 282.294 C 806.913 284.494 807.313 287.694 807.613 289.394 C 809.113 297.894 812.313 320.294 812.413 323.394 C 812.513 325.694 813.113 326.894 814.013 326.894 C 815.513 326.894 817.413 319.394 818.613 308.794 C 818.913 305.494 819.813 299.294 820.613 294.894 C 821.413 290.494 822.513 283.294 823.113 278.894 C 823.813 274.494 824.913 267.794 825.713 263.894 C 826.413 260.094 827.213 255.094 827.513 252.894 C 829.213 239.694 830.713 230.094 832.613 219.894 C 833.413 215.494 835.013 205.594 836.113 197.894 C 837.213 190.194 838.613 181.694 839.113 178.894 C 839.613 176.194 841.013 167.694 842.213 159.994 C 844.713 144.594 845.513 143.494 852.513 144.794 C 856.713 145.594 856.813 142.594 852.013 171.894 C 848.313 194.894 847.113 202.594 846.113 209.394 C 843.813 225.794 840.913 242.094 840.013 243.694 C 839.513 244.694 839.313 245.894 839.613 246.394 C 840.113 247.094 834.613 283.794 832.513 293.394 C 832.313 294.794 831.813 297.494 831.513 299.394 C 830.213 308.594 828.013 322.694 826.613 330.394 C 825.713 335.094 824.813 340.894 824.513 343.294 C 823.713 350.294 822.713 351.394 817.313 351.594 C 814.713 351.694 811.713 351.794 810.613 351.894 C 805.513 352.294 805.513 352.294 802.513 331.394 C 802.313 329.994 801.713 326.394 801.113 323.394 C 800.513 320.394 800.013 316.294 800.013 314.394 C 799.913 312.494 799.613 310.494 799.113 309.894 C 798.713 309.394 798.413 308.194 798.313 307.394 C 798.313 306.594 797.813 303.394 797.213 300.394 C 796.713 297.394 795.913 292.894 795.613 290.394 C 795.213 287.894 794.513 283.694 794.013 280.994 C 793.513 278.294 793.113 274.494 793.113 272.494 C 793.113 270.394 792.713 268.394 792.213 267.894 C 791.813 267.294 790.913 262.894 790.213 257.894 C 789.613 252.994 788.613 246.694 788.113 243.894 C 786.913 237.894 784.513 223.294 782.413 210.394 C 781.613 205.194 780.813 199.994 780.613 198.894 C 780.413 197.794 779.913 194.494 779.513 191.694 C 778.513 183.894 776.513 184.894 775.713 193.594 C 775.413 197.494 774.613 201.294 774.013 201.994 C 773.413 202.694 773.213 203.694 773.513 204.194 C 773.813 204.794 773.613 207.394 773.113 209.994 C 771.813 216.094 767.113 243.694 766.513 248.394 C 766.213 250.294 765.613 253.494 765.113 255.394 C 764.613 257.294 764.013 260.694 763.713 262.894 C 763.213 267.394 761.013 280.394 758.513 293.894 C 757.613 298.894 756.813 303.794 756.613 304.894 C 756.413 305.994 756.013 308.694 755.613 310.894 C 750.513 341.294 749.113 348.394 748.113 349.994 C 747.113 351.594 745.613 351.994 739.013 352.094 C 734.213 352.094 730.813 351.794 730.313 350.994 L 730.313 350.994 Z " fill="rgb(1,46,103)"/><path d=" M 855.213 350.994 C 854.213 349.794 854.413 347.794 856.013 341.694 C 858.813 330.794 864.313 305.394 864.513 302.394 C 864.613 300.994 864.913 299.494 865.213 298.894 C 865.613 298.394 866.813 292.694 868.013 286.394 C 869.313 280.094 870.513 274.194 870.913 273.394 C 871.613 271.294 871.613 271.494 872.513 265.894 C 872.913 263.194 873.813 258.894 874.513 256.394 C 875.313 253.894 876.813 247.394 878.013 241.894 C 882.113 222.994 884.213 213.894 885.113 210.894 C 885.613 209.294 886.513 204.494 887.213 200.394 C 888.813 189.794 888.813 189.794 896.913 189.594 C 900.813 189.394 904.213 189.694 904.513 190.294 C 905.013 191.094 907.913 203.494 908.513 207.894 C 908.713 208.994 909.113 210.594 909.313 211.394 C 910.013 213.294 912.513 224.394 914.713 234.894 C 915.613 239.294 916.913 245.194 917.713 247.894 C 918.413 250.694 920.213 258.494 921.713 265.394 C 923.113 272.294 924.413 278.394 924.613 278.894 C 924.713 279.494 925.113 280.594 925.513 281.494 C 925.913 282.494 926.113 283.794 926.013 284.494 C 925.913 285.294 926.013 286.594 926.413 287.394 C 926.713 288.194 927.413 291.394 928.013 294.394 C 928.613 297.394 929.313 300.794 929.613 301.894 C 929.913 302.994 930.313 305.294 930.513 306.994 C 930.713 308.694 931.013 310.494 931.313 310.994 C 932.013 312.194 933.613 319.094 935.613 328.894 C 936.513 333.294 937.713 338.694 938.313 340.894 C 940.713 349.894 940.213 351.794 935.213 352.194 C 930.513 352.594 929.813 350.694 925.713 329.394 C 924.713 324.594 922.813 317.894 922.213 317.194 C 921.613 316.494 872.213 315.894 871.613 316.594 C 871.413 316.794 869.713 323.994 867.713 332.794 C 865.713 341.994 863.513 349.394 862.513 350.494 C 860.513 352.794 856.813 352.994 855.213 350.994 Z  M 919.113 305.894 C 920.113 304.694 919.713 301.594 916.713 289.394 C 914.713 281.094 913.313 273.894 913.613 273.394 C 913.913 272.894 913.713 272.294 913.213 271.994 C 912.713 271.594 912.013 269.494 911.613 267.094 C 911.213 264.794 910.713 262.194 910.513 261.394 C 906.113 242.494 905.013 237.594 904.713 235.894 C 904.513 234.794 903.213 229.194 901.813 223.394 C 900.413 217.594 899.013 210.994 898.613 208.694 C 897.613 202.194 895.613 203.394 894.413 211.194 C 893.313 217.894 887.413 244.494 886.313 247.394 C 886.013 248.194 885.613 249.894 885.513 251.194 C 885.313 252.394 884.313 257.394 883.113 262.194 C 880.913 271.294 880.013 275.194 878.013 284.394 C 877.313 287.394 876.313 290.394 875.813 291.094 C 875.313 291.794 875.213 292.694 875.413 293.094 C 875.713 293.594 875.313 296.594 874.613 299.894 C 873.813 303.094 873.413 305.994 873.613 306.394 C 873.813 306.694 883.913 307.094 895.913 307.194 C 914.513 307.394 918.013 307.194 919.113 305.894 Z " fill="rgb(1,46,103)"/><path d=" M 963.413 351.094 C 963.013 350.494 962.813 319.994 962.813 283.394 C 962.913 246.794 962.713 213.094 962.313 208.394 L 961.613 199.894 L 946.113 199.394 L 930.613 198.894 L 929.713 196.294 C 927.713 190.594 928.313 190.394 948.313 190.294 C 991.213 190.194 1004.113 190.294 1005.013 190.794 C 1005.513 191.194 1005.913 192.694 1005.913 194.294 C 1005.813 198.894 1003.313 199.494 987.313 199.194 L 973.113 198.894 L 973.113 201.394 C 973.113 202.794 973.113 236.794 973.013 276.994 L 973.013 350.094 L 970.813 351.194 C 967.813 352.494 964.313 352.494 963.413 351.094 L 963.413 351.094 Z " fill="rgb(1,46,103)"/><path d=" M 1017.013 349.594 C 1016.013 347.094 1015.713 194.494 1016.713 191.994 C 1017.213 190.594 1020.313 190.394 1043.013 190.394 C 1057.113 190.294 1070.513 189.994 1072.713 189.494 C 1075.113 189.094 1077.613 189.094 1078.513 189.594 C 1080.413 190.694 1080.713 196.394 1078.913 198.194 C 1078.013 199.094 1070.813 199.394 1052.413 199.394 L 1027.213 199.394 L 1026.913 231.394 C 1026.713 248.994 1026.813 263.894 1026.913 264.394 C 1027.113 264.994 1035.413 265.394 1048.713 265.394 L 1070.113 265.394 L 1070.713 268.094 C 1072.113 273.594 1071.313 273.894 1048.213 274.394 L 1026.913 274.894 L 1027.013 308.394 L 1027.113 341.894 L 1053.313 342.394 L 1079.613 342.894 L 1079.913 346.594 C 1080.113 349.494 1079.813 350.494 1078.113 351.394 C 1076.713 352.194 1067.013 352.394 1047.013 352.194 L 1017.913 351.894 L 1017.013 349.594 Z " fill="rgb(1,46,103)"/><path d=" M 1097.613 351.394 C 1097.213 350.694 1096.713 214.694 1097.113 192.294 C 1097.113 189.794 1097.413 189.594 1100.913 189.894 C 1102.913 189.994 1112.913 190.194 1123.113 190.394 C 1133.213 190.494 1142.213 190.994 1143.113 191.394 C 1143.913 191.794 1146.313 192.894 1148.513 193.994 C 1152.613 195.994 1159.713 203.394 1161.313 207.394 C 1163.513 212.894 1164.713 220.394 1165.013 230.694 C 1165.313 243.594 1163.613 254.494 1160.413 259.594 C 1159.113 261.694 1158.113 263.794 1158.113 264.394 C 1158.113 264.894 1157.613 265.394 1157.113 265.394 C 1156.513 265.394 1154.613 266.794 1152.913 268.494 C 1151.113 270.194 1148.413 271.794 1146.913 272.094 C 1144.213 272.594 1141.913 274.394 1144.013 274.394 C 1144.513 274.394 1145.613 274.994 1146.313 275.694 C 1147.013 276.294 1149.413 277.794 1151.513 278.894 C 1155.713 280.994 1159.813 286.394 1162.513 293.394 C 1163.913 296.994 1164.313 301.794 1164.613 319.394 C 1164.813 331.194 1165.413 342.594 1165.913 344.694 C 1167.413 350.294 1166.513 352.394 1162.613 352.394 C 1155.713 352.394 1154.513 347.694 1154.213 320.294 C 1154.013 296.794 1153.313 293.194 1147.913 287.694 C 1141.513 281.194 1137.213 279.994 1120.713 279.894 L 1106.713 279.894 L 1106.713 314.894 C 1106.613 334.194 1106.213 350.494 1105.813 351.194 C 1104.813 352.594 1098.513 352.794 1097.613 351.394 Z  M 1138.813 268.194 C 1143.313 267.094 1148.813 262.294 1151.813 256.894 C 1154.013 252.894 1154.913 226.894 1153.113 216.994 C 1152.013 210.894 1151.413 209.694 1147.413 205.794 C 1143.513 202.094 1142.013 201.394 1136.213 200.394 C 1132.613 199.794 1124.513 199.394 1118.213 199.594 L 1106.813 199.894 L 1106.713 234.194 C 1106.613 267.794 1106.613 268.494 1108.613 268.894 C 1115.413 270.394 1131.613 270.094 1138.813 268.194 L 1138.813 268.194 Z " fill="rgb(1,46,103)"/></g></g></svg>