<?xml version="1.0" standalone="no"?>
<!DOCTYPE svg PUBLIC "-//W3C//DTD SVG 20010904//EN"
 "http://www.w3.org/TR/2001/REC-SVG-20010904/DTD/svg10.dtd">
<svg version="1.0" xmlns="http://www.w3.org/2000/svg"
 width="230.970795pt" height="230.799389pt" viewBox="0 0 230.970795 230.799389"
 preserveAspectRatio="xMidYMid meet">
<metadata>
Created by potrace 1.12, written by Peter Selinger 2001-2015
</metadata>
<g transform="translate(-14.837933,237.076922) scale(0.100000,-0.100000)"
fill="#90B482" stroke="none">
<path d="M1173 2277 c-51 -51 -93 -101 -93 -110 0 -17 9 -27 63 -70 60 -47 38
-152 -36 -176 -48 -16 -100 6 -128 54 -35 58 -61 50 -161 -52 -47 -49 -88 -98
-92 -110 -4 -13 -14 -23 -23 -23 -8 0 -53 -36 -98 -81 l-83 -81 -40 40 c-68
68 -160 66 -221 -3 -58 -66 -51 -159 17 -214 l37 -31 -77 -77 c-120 -122 -120
-135 5 -260 93 -95 125 -106 155 -54 58 103 202 68 202 -49 0 -30 -11 -45 -81
-104 -10 -9 -19 -23 -19 -32 0 -23 158 -184 198 -200 17 -8 32 -22 32 -30 0
-9 36 -54 81 -99 l80 -83 -29 -23 c-60 -48 -78 -123 -44 -189 48 -97 181 -108
254 -22 l25 30 74 -72 c87 -85 110 -99 148 -91 37 8 201 174 201 203 0 12 -14
30 -32 43 -18 13 -38 30 -45 39 -55 70 16 182 104 164 35 -7 53 -20 82 -61 36
-52 56 -44 153 55 47 48 88 97 92 110 4 12 15 22 24 22 10 0 53 36 97 80 44
44 83 80 88 80 4 0 21 -15 38 -34 117 -134 319 9 243 171 -10 19 -29 42 -43
51 -14 9 -28 17 -30 19 -3 2 35 43 82 92 114 116 114 116 -5 237 -72 74 -98
94 -120 94 -20 0 -31 -8 -43 -29 -33 -65 -109 -82 -164 -35 -57 48 -47 135 19
169 17 9 33 27 36 41 6 23 -5 38 -87 120 -51 52 -99 94 -106 94 -7 0 -19 12
-27 28 -8 15 -49 61 -90 102 l-76 74 40 38 c64 62 68 154 9 214 -65 68 -175
60 -231 -16 l-22 -30 -87 85 c-118 116 -122 116 -246 -8z m220 -28 c45 -44 90
-85 99 -90 24 -13 45 -2 68 36 40 65 126 71 175 13 23 -27 26 -39 22 -73 -5
-32 -15 -48 -51 -80 -26 -22 -46 -47 -46 -55 0 -9 38 -53 85 -100 50 -50 85
-93 85 -105 0 -18 -135 -165 -151 -165 -4 0 -24 17 -45 38 -53 53 -109 62
-172 30 -61 -31 -85 -76 -79 -148 4 -49 8 -58 47 -92 l44 -39 -79 -79 c-44
-44 -84 -80 -90 -80 -5 0 -49 39 -96 86 -68 68 -93 86 -115 87 -17 0 -32 -8
-39 -19 -44 -79 -122 -99 -176 -45 -23 23 -29 38 -29 72 0 38 5 48 45 85 28
25 45 50 45 64 0 15 -29 52 -85 109 -47 48 -85 92 -85 97 0 5 36 45 79 88 l79
79 32 -37 c62 -70 157 -73 221 -6 62 65 59 149 -9 214 l-37 37 81 79 c45 44
84 80 88 80 4 0 44 -36 89 -81z m-580 -578 l80 -79 -35 -31 c-45 -39 -62 -80
-56 -135 7 -58 38 -100 90 -121 64 -25 119 -14 170 37 l40 40 74 -73 c43 -43
74 -82 74 -94 0 -11 -35 -55 -86 -106 -75 -75 -86 -90 -80 -112 3 -14 14 -28
24 -32 31 -9 62 -50 68 -86 6 -42 -24 -95 -62 -109 -52 -20 -76 -12 -124 40
-25 28 -53 50 -61 50 -8 0 -52 -38 -99 -85 -51 -51 -93 -85 -105 -85 -12 0
-50 30 -94 74 l-73 74 40 40 c31 31 42 51 47 86 14 90 -59 176 -149 176 -46 0
-86 -20 -120 -61 l-27 -32 -80 79 c-43 43 -79 83 -79 89 0 6 38 48 85 95 101
101 105 114 40 174 -39 37 -45 48 -45 82 1 62 46 104 111 104 27 0 42 -10 80
-51 34 -37 52 -49 66 -45 10 3 56 44 103 91 46 47 89 85 94 85 5 0 45 -35 89
-79z m1151 5 c42 -40 76 -78 76 -84 0 -6 -10 -18 -21 -26 -39 -27 -59 -68 -59
-121 0 -119 107 -187 213 -136 24 12 50 32 57 46 7 14 18 25 25 25 14 0 155
-147 155 -162 0 -7 -38 -51 -85 -99 -101 -103 -107 -125 -46 -163 73 -46 74
-143 2 -180 -57 -30 -106 -15 -146 45 -16 25 -33 39 -46 39 -13 0 -58 -35
-114 -90 -51 -49 -96 -90 -100 -90 -3 0 -42 36 -86 80 l-80 81 31 26 c80 67
81 185 3 241 -66 46 -135 39 -200 -21 l-44 -41 -74 75 c-43 42 -75 83 -75 94
0 13 33 54 85 105 97 97 104 117 50 149 -41 24 -70 81 -60 119 3 13 19 37 35
53 50 51 131 35 165 -32 27 -51 57 -40 156 56 47 47 91 85 97 85 5 0 44 -33
86 -74z m-564 -591 c65 -65 91 -85 112 -85 18 0 29 6 33 20 12 37 63 70 110
70 37 0 47 -5 74 -35 49 -56 35 -123 -34 -163 -53 -32 -47 -53 50 -151 47 -48
85 -94 85 -102 0 -8 -35 -50 -77 -92 l-77 -77 -25 31 c-46 59 -137 77 -199 39
-91 -56 -98 -189 -11 -251 l31 -22 -78 -78 c-43 -44 -85 -79 -94 -79 -8 0 -54
39 -101 86 -76 76 -90 86 -113 80 -15 -4 -32 -19 -41 -37 -10 -18 -31 -37 -52
-45 -119 -50 -204 114 -95 183 64 41 58 63 -43 163 -47 47 -85 89 -85 95 0 10
47 62 118 129 l40 39 32 -36 c79 -91 212 -65 256 49 15 38 15 51 4 86 -6 23
-28 58 -47 77 l-34 34 33 35 c61 65 123 122 133 122 6 0 48 -38 95 -85z"/>
</g>
</svg>
